<svg width="176" height="34" viewBox="0 0 176 34" fill="none" xmlns="http://www.w3.org/2000/svg">
<mask id="path-1-outside-1_8_149" maskUnits="userSpaceOnUse" x="39" y="4" width="99" height="24" fill="black">
<rect fill="white" x="39" y="4" width="99" height="24"/>
<path d="M40.078 27V25.852L42.906 25.362L42.934 16.444L42.906 7.778L40.078 7.302V6H45.818L50.97 15.464L55.268 22.576V16.444L55.24 7.778L52.062 7.302V6H59.482V7.302L56.64 7.778L56.612 16.444L56.57 27H54.904L48.968 16.598L44.292 8.534L44.264 16.486L44.306 25.362L47.386 25.852V27H40.078ZM59.9902 27V25.852L62.5382 25.362L64.7922 19.412L69.5802 5.888H71.2882L76.0202 18.74L78.5402 25.362L80.9062 25.852V27H73.4302V25.852L75.8102 25.418L73.9762 19.86L69.9302 9.192L66.0942 19.804L64.3022 25.432L66.9202 25.852V27H59.9902ZM65.1702 20.448L65.6602 19.062L70.4062 19.202L74.9562 19.048L75.3202 20.448H65.1702ZM81.5858 27V25.852L84.3298 25.348L84.3578 16.444L84.3298 7.778L81.5858 7.302V6H90.2098C92.1325 6 93.5511 6.42 94.4658 7.26C95.3898 8.1 95.8518 9.29 95.8518 10.83C95.8518 12.5193 95.2918 13.8913 94.1718 14.946C93.0611 15.9913 91.7405 16.514 90.2098 16.514C89.5938 16.514 88.8051 16.4953 87.8438 16.458C86.8918 16.4113 86.1638 16.3693 85.6598 16.332V15.24L87.1858 15.254H89.1738C90.5551 15.254 91.5538 14.8667 92.1698 14.092C92.7951 13.3173 93.1078 12.272 93.1078 10.956C93.1078 9.78933 92.8371 8.898 92.2958 8.282C91.7545 7.666 90.8818 7.358 89.6778 7.358H87.2698L86.8778 7.624L86.8218 16.458L86.8498 25.348L89.7058 25.852V27H81.5858ZM89.0198 16.332L91.0498 15.268L95.7118 22.73C96.5425 23.99 97.2751 24.8253 97.9098 25.236C98.5538 25.6373 99.1325 25.8427 99.6458 25.852V27H96.1178L95.1938 26.104L89.0198 16.332ZM98.873 27V25.852L101.421 25.362L103.675 19.412L108.463 5.888H110.171L114.903 18.74L117.423 25.362L119.789 25.852V27H112.313V25.852L114.693 25.418L112.859 19.86L108.813 9.192L104.977 19.804L103.185 25.432L105.803 25.852V27H98.873ZM104.053 20.448L104.543 19.062L109.289 19.202L113.839 19.048L114.203 20.448H104.053ZM118.873 7.302V6H125.985V7.302L123.913 7.792L126.153 12.286L128.435 16.206L130.619 12.048L132.719 7.694L130.073 7.302V6H136.905V7.302L134.483 7.68L131.725 12.804L129.135 17.704L129.163 25.362L132.033 25.852V27H123.731V25.852L126.643 25.362L126.671 17.886L124.165 13.308L121.015 7.666L118.873 7.302Z"/>
</mask>
<path d="M40.078 27V25.852L42.906 25.362L42.934 16.444L42.906 7.778L40.078 7.302V6H45.818L50.97 15.464L55.268 22.576V16.444L55.24 7.778L52.062 7.302V6H59.482V7.302L56.64 7.778L56.612 16.444L56.57 27H54.904L48.968 16.598L44.292 8.534L44.264 16.486L44.306 25.362L47.386 25.852V27H40.078ZM59.9902 27V25.852L62.5382 25.362L64.7922 19.412L69.5802 5.888H71.2882L76.0202 18.74L78.5402 25.362L80.9062 25.852V27H73.4302V25.852L75.8102 25.418L73.9762 19.86L69.9302 9.192L66.0942 19.804L64.3022 25.432L66.9202 25.852V27H59.9902ZM65.1702 20.448L65.6602 19.062L70.4062 19.202L74.9562 19.048L75.3202 20.448H65.1702ZM81.5858 27V25.852L84.3298 25.348L84.3578 16.444L84.3298 7.778L81.5858 7.302V6H90.2098C92.1325 6 93.5511 6.42 94.4658 7.26C95.3898 8.1 95.8518 9.29 95.8518 10.83C95.8518 12.5193 95.2918 13.8913 94.1718 14.946C93.0611 15.9913 91.7405 16.514 90.2098 16.514C89.5938 16.514 88.8051 16.4953 87.8438 16.458C86.8918 16.4113 86.1638 16.3693 85.6598 16.332V15.24L87.1858 15.254H89.1738C90.5551 15.254 91.5538 14.8667 92.1698 14.092C92.7951 13.3173 93.1078 12.272 93.1078 10.956C93.1078 9.78933 92.8371 8.898 92.2958 8.282C91.7545 7.666 90.8818 7.358 89.6778 7.358H87.2698L86.8778 7.624L86.8218 16.458L86.8498 25.348L89.7058 25.852V27H81.5858ZM89.0198 16.332L91.0498 15.268L95.7118 22.73C96.5425 23.99 97.2751 24.8253 97.9098 25.236C98.5538 25.6373 99.1325 25.8427 99.6458 25.852V27H96.1178L95.1938 26.104L89.0198 16.332ZM98.873 27V25.852L101.421 25.362L103.675 19.412L108.463 5.888H110.171L114.903 18.74L117.423 25.362L119.789 25.852V27H112.313V25.852L114.693 25.418L112.859 19.86L108.813 9.192L104.977 19.804L103.185 25.432L105.803 25.852V27H98.873ZM104.053 20.448L104.543 19.062L109.289 19.202L113.839 19.048L114.203 20.448H104.053ZM118.873 7.302V6H125.985V7.302L123.913 7.792L126.153 12.286L128.435 16.206L130.619 12.048L132.719 7.694L130.073 7.302V6H136.905V7.302L134.483 7.68L131.725 12.804L129.135 17.704L129.163 25.362L132.033 25.852V27H123.731V25.852L126.643 25.362L126.671 17.886L124.165 13.308L121.015 7.666L118.873 7.302Z" fill="#CC1100"/>
<path d="M40.078 27H39.078V28H40.078V27ZM40.078 25.852L39.9073 24.8667L39.078 25.0104V25.852H40.078ZM42.906 25.362L43.0767 26.3473L43.9034 26.2041L43.906 25.3651L42.906 25.362ZM42.934 16.444L43.934 16.4471L43.934 16.4408L42.934 16.444ZM42.906 7.778L43.906 7.77477L43.9033 6.93179L43.072 6.79187L42.906 7.778ZM40.078 7.302H39.078V8.14775L39.912 8.28813L40.078 7.302ZM40.078 6V5H39.078V6H40.078ZM45.818 6L46.6963 5.52187L46.4122 5H45.818V6ZM50.97 15.464L50.0917 15.9421L50.1025 15.9619L50.1141 15.9812L50.97 15.464ZM55.268 22.576L54.4121 23.0932L56.268 26.1641V22.576H55.268ZM55.268 16.444L56.268 16.444L56.268 16.4408L55.268 16.444ZM55.24 7.778L56.24 7.77477L56.2372 6.91621L55.3881 6.78903L55.24 7.778ZM52.062 7.302H51.062V8.16337L51.9139 8.29097L52.062 7.302ZM52.062 6V5H51.062V6H52.062ZM59.482 6H60.482V5H59.482V6ZM59.482 7.302L59.6472 8.28826L60.482 8.14844V7.302H59.482ZM56.64 7.778L56.4748 6.79174L55.6427 6.9311L55.64 7.77477L56.64 7.778ZM56.612 16.444L57.612 16.448L57.612 16.4472L56.612 16.444ZM56.57 27V28H57.566L57.57 27.004L56.57 27ZM54.904 27L54.0355 27.4956L54.3233 28H54.904V27ZM48.968 16.598L49.8366 16.1024L49.8331 16.0964L48.968 16.598ZM44.292 8.534L45.1571 8.03237L43.305 4.83837L43.292 8.53048L44.292 8.534ZM44.264 16.486L43.264 16.4825L43.264 16.4907L44.264 16.486ZM44.306 25.362L43.306 25.3667L43.31 26.2161L44.1489 26.3496L44.306 25.362ZM47.386 25.852H48.386V24.9985L47.5431 24.8644L47.386 25.852ZM47.386 27V28H48.386V27H47.386ZM41.078 27V25.852H39.078V27H41.078ZM40.2487 26.8373L43.0767 26.3473L42.7353 24.3767L39.9073 24.8667L40.2487 26.8373ZM43.906 25.3651L43.934 16.4471L41.934 16.4409L41.906 25.3589L43.906 25.3651ZM43.934 16.4408L43.906 7.77477L41.906 7.78123L41.934 16.4472L43.934 16.4408ZM43.072 6.79187L40.244 6.31587L39.912 8.28813L42.74 8.76413L43.072 6.79187ZM41.078 7.302V6H39.078V7.302H41.078ZM40.078 7H45.818V5H40.078V7ZM44.9397 6.47812L50.0917 15.9421L51.8483 14.9859L46.6963 5.52187L44.9397 6.47812ZM50.1141 15.9812L54.4121 23.0932L56.1239 22.0588L51.8259 14.9468L50.1141 15.9812ZM56.268 22.576V16.444H54.268V22.576H56.268ZM56.268 16.4408L56.24 7.77477L54.24 7.78123L54.268 16.4472L56.268 16.4408ZM55.3881 6.78903L52.2101 6.31303L51.9139 8.29097L55.0919 8.76697L55.3881 6.78903ZM53.062 7.302V6H51.062V7.302H53.062ZM52.062 7H59.482V5H52.062V7ZM58.482 6V7.302H60.482V6H58.482ZM59.3168 6.31574L56.4748 6.79174L56.8052 8.76426L59.6472 8.28826L59.3168 6.31574ZM55.64 7.77477L55.612 16.4408L57.612 16.4472L57.64 7.78123L55.64 7.77477ZM55.612 16.44L55.57 26.996L57.57 27.004L57.612 16.448L55.612 16.44ZM56.57 26H54.904V28H56.57V26ZM55.7725 26.5044L49.8365 16.1024L48.0995 17.0936L54.0355 27.4956L55.7725 26.5044ZM49.8331 16.0964L45.1571 8.03237L43.4269 9.03563L48.1029 17.0996L49.8331 16.0964ZM43.292 8.53048L43.264 16.4825L45.264 16.4895L45.292 8.53752L43.292 8.53048ZM43.264 16.4907L43.306 25.3667L45.306 25.3573L45.264 16.4813L43.264 16.4907ZM44.1489 26.3496L47.2289 26.8396L47.5431 24.8644L44.4631 24.3744L44.1489 26.3496ZM46.386 25.852V27H48.386V25.852H46.386ZM47.386 26H40.078V28H47.386V26ZM59.9902 27H58.9902V28H59.9902V27ZM59.9902 25.852L59.8013 24.87L58.9902 25.026V25.852H59.9902ZM62.5382 25.362L62.727 26.344L63.2755 26.2385L63.4733 25.7163L62.5382 25.362ZM64.7922 19.412L65.7273 19.7663L65.7312 19.756L65.7348 19.7457L64.7922 19.412ZM69.5802 5.888V4.888H68.8734L68.6375 5.55426L69.5802 5.888ZM71.2882 5.888L72.2266 5.54248L71.9856 4.888H71.2882V5.888ZM76.0202 18.74L75.0817 19.0855L75.0855 19.0957L76.0202 18.74ZM78.5402 25.362L77.6055 25.7177L77.8005 26.23L78.3374 26.3412L78.5402 25.362ZM80.9062 25.852H81.9062V25.0379L81.109 24.8728L80.9062 25.852ZM80.9062 27V28H81.9062V27H80.9062ZM73.4302 27H72.4302V28H73.4302V27ZM73.4302 25.852L73.2508 24.8682L72.4302 25.0179V25.852H73.4302ZM75.8102 25.418L75.9896 26.4018L77.1198 26.1957L76.7598 25.1046L75.8102 25.418ZM73.9762 19.86L74.9258 19.5466L74.9189 19.5259L74.9112 19.5054L73.9762 19.86ZM69.9302 9.192L70.8652 8.83738L69.9076 6.31268L68.9897 8.85205L69.9302 9.192ZM66.0942 19.804L65.1537 19.4641L65.1472 19.4822L65.1413 19.5006L66.0942 19.804ZM64.3022 25.432L63.3493 25.1286L62.9969 26.2354L64.1438 26.4194L64.3022 25.432ZM66.9202 25.852H67.9202V24.9996L67.0786 24.8646L66.9202 25.852ZM66.9202 27V28H67.9202V27H66.9202ZM65.1702 20.448L64.2273 20.1147L63.756 21.448H65.1702V20.448ZM65.6602 19.062L65.6896 18.0624L64.9605 18.0409L64.7173 18.7287L65.6602 19.062ZM70.4062 19.202L70.3767 20.2016L70.4083 20.2025L70.44 20.2014L70.4062 19.202ZM74.9562 19.048L75.924 18.7964L75.7225 18.0215L74.9223 18.0486L74.9562 19.048ZM75.3202 20.448V21.448H76.6134L76.288 20.1964L75.3202 20.448ZM60.9902 27V25.852H58.9902V27H60.9902ZM60.179 26.834L62.727 26.344L62.3493 24.38L59.8013 24.87L60.179 26.834ZM63.4733 25.7163L65.7273 19.7663L63.857 19.0577L61.603 25.0077L63.4733 25.7163ZM65.7348 19.7457L70.5228 6.22174L68.6375 5.55426L63.8495 19.0783L65.7348 19.7457ZM69.5802 6.888H71.2882V4.888H69.5802V6.888ZM70.3497 6.23352L75.0817 19.0855L76.9586 18.3945L72.2266 5.54248L70.3497 6.23352ZM75.0855 19.0957L77.6055 25.7177L79.4748 25.0063L76.9548 18.3843L75.0855 19.0957ZM78.3374 26.3412L80.7034 26.8312L81.109 24.8728L78.743 24.3828L78.3374 26.3412ZM79.9062 25.852V27H81.9062V25.852H79.9062ZM80.9062 26H73.4302V28H80.9062V26ZM74.4302 27V25.852H72.4302V27H74.4302ZM73.6096 26.8358L75.9896 26.4018L75.6308 24.4342L73.2508 24.8682L73.6096 26.8358ZM76.7598 25.1046L74.9258 19.5466L73.0265 20.1734L74.8605 25.7314L76.7598 25.1046ZM74.9112 19.5054L70.8652 8.83738L68.9951 9.54662L73.0411 20.2146L74.9112 19.5054ZM68.9897 8.85205L65.1537 19.4641L67.0346 20.1439L70.8706 9.53195L68.9897 8.85205ZM65.1413 19.5006L63.3493 25.1286L65.255 25.7354L67.047 20.1074L65.1413 19.5006ZM64.1438 26.4194L66.7618 26.8394L67.0786 24.8646L64.4606 24.4446L64.1438 26.4194ZM65.9202 25.852V27H67.9202V25.852H65.9202ZM66.9202 26H59.9902V28H66.9202V26ZM66.113 20.7813L66.603 19.3953L64.7173 18.7287L64.2273 20.1147L66.113 20.7813ZM65.6307 20.0616L70.3767 20.2016L70.4356 18.2024L65.6896 18.0624L65.6307 20.0616ZM70.44 20.2014L74.99 20.0474L74.9223 18.0486L70.3723 18.2026L70.44 20.2014ZM73.9883 19.2996L74.3523 20.6996L76.288 20.1964L75.924 18.7964L73.9883 19.2996ZM75.3202 19.448H65.1702V21.448H75.3202V19.448ZM81.5858 27H80.5858V28H81.5858V27ZM81.5858 25.852L81.4052 24.8685L80.5858 25.0189V25.852H81.5858ZM84.3298 25.348L84.5105 26.3315L85.3272 26.1815L85.3298 25.3511L84.3298 25.348ZM84.3578 16.444L85.3578 16.4471L85.3578 16.4408L84.3578 16.444ZM84.3298 7.778L85.3298 7.77477L85.3271 6.93606L84.5007 6.79271L84.3298 7.778ZM81.5858 7.302H80.5858V8.14346L81.4149 8.28728L81.5858 7.302ZM81.5858 6V5H80.5858V6H81.5858ZM94.4658 7.26L93.7894 7.99654L93.7931 7.99994L94.4658 7.26ZM94.1718 14.946L94.8572 15.6742L94.8574 15.674L94.1718 14.946ZM87.8438 16.458L87.7948 17.4569L87.805 17.4572L87.8438 16.458ZM85.6598 16.332H84.6598V17.2607L85.5859 17.3293L85.6598 16.332ZM85.6598 15.24L85.669 14.24L84.6598 14.2308V15.24H85.6598ZM87.1858 15.254L87.1766 16.254H87.1858V15.254ZM92.1698 14.092L91.3917 13.4639L91.3871 13.4696L92.1698 14.092ZM92.2958 8.282L91.5446 8.94211L91.5446 8.94211L92.2958 8.282ZM87.2698 7.358V6.358H86.9626L86.7083 6.53052L87.2698 7.358ZM86.8778 7.624L86.3163 6.79652L85.8812 7.0918L85.8778 7.61766L86.8778 7.624ZM86.8218 16.458L85.8218 16.4517L85.8218 16.4611L86.8218 16.458ZM86.8498 25.348L85.8498 25.3511L85.8525 26.1874L86.676 26.3328L86.8498 25.348ZM89.7058 25.852H90.7058V25.013L89.8796 24.8672L89.7058 25.852ZM89.7058 27V28H90.7058V27H89.7058ZM89.0198 16.332L88.5556 15.4463L87.5953 15.9496L88.1744 16.8661L89.0198 16.332ZM91.0498 15.268L91.8979 14.7381L91.4067 13.9519L90.5856 14.3823L91.0498 15.268ZM95.7118 22.73L94.8637 23.2599L94.8702 23.2702L94.8769 23.2804L95.7118 22.73ZM97.9098 25.236L97.3666 26.0756L97.3737 26.0802L97.3809 26.0847L97.9098 25.236ZM99.6458 25.852H100.646V24.87L99.664 24.8522L99.6458 25.852ZM99.6458 27V28H100.646V27H99.6458ZM96.1178 27L95.4217 27.7179L95.7126 28H96.1178V27ZM95.1938 26.104L94.3484 26.6381L94.4121 26.7389L94.4977 26.8219L95.1938 26.104ZM82.5858 27V25.852H80.5858V27H82.5858ZM81.7665 26.8355L84.5105 26.3315L84.1492 24.3645L81.4052 24.8685L81.7665 26.8355ZM85.3298 25.3511L85.3578 16.4471L83.3578 16.4409L83.3298 25.3449L85.3298 25.3511ZM85.3578 16.4408L85.3298 7.77477L83.3298 7.78123L83.3578 16.4472L85.3578 16.4408ZM84.5007 6.79271L81.7567 6.31671L81.4149 8.28728L84.1589 8.76329L84.5007 6.79271ZM82.5858 7.302V6H80.5858V7.302H82.5858ZM81.5858 7H90.2098V5H81.5858V7ZM90.2098 7C92.0143 7 93.1378 7.39812 93.7894 7.99653L95.1422 6.52347C93.9645 5.44188 92.2507 5 90.2098 5V7ZM93.7931 7.99994C94.4615 8.60752 94.8518 9.50095 94.8518 10.83H96.8518C96.8518 9.07905 96.3181 7.59248 95.1385 6.52006L93.7931 7.99994ZM94.8518 10.83C94.8518 12.2737 94.3847 13.3719 93.4863 14.218L94.8574 15.674C96.1989 14.4108 96.8518 12.765 96.8518 10.83H94.8518ZM93.4864 14.2178C92.562 15.0879 91.4868 15.514 90.2098 15.514V17.514C91.9942 17.514 93.5603 16.8948 94.8572 15.6742L93.4864 14.2178ZM90.2098 15.514C89.6118 15.514 88.8373 15.4958 87.8826 15.4588L87.805 17.4572C88.773 17.4948 89.5758 17.514 90.2098 17.514V15.514ZM87.8928 15.4592C86.9432 15.4127 86.2251 15.3711 85.7337 15.3347L85.5859 17.3293C86.1026 17.3675 86.8404 17.41 87.7949 17.4568L87.8928 15.4592ZM86.6598 16.332V15.24H84.6598V16.332H86.6598ZM85.6506 16.24L87.1766 16.254L87.195 14.254L85.669 14.24L85.6506 16.24ZM87.1858 16.254H89.1738V14.254H87.1858V16.254ZM89.1738 16.254C90.7327 16.254 92.0797 15.8121 92.9525 14.7144L91.3871 13.4696C91.028 13.9212 90.3776 14.254 89.1738 14.254V16.254ZM92.9479 14.7201C93.7573 13.7175 94.1078 12.4266 94.1078 10.956H92.1078C92.1078 12.1174 91.833 12.9172 91.3917 13.4639L92.9479 14.7201ZM94.1078 10.956C94.1078 9.64803 93.805 8.48451 93.047 7.62189L91.5446 8.94211C91.8693 9.31149 92.1078 9.93064 92.1078 10.956H94.1078ZM93.047 7.62189C92.241 6.70473 91.0324 6.358 89.6778 6.358V8.358C90.7312 8.358 91.268 8.62727 91.5446 8.94211L93.047 7.62189ZM89.6778 6.358H87.2698V8.358H89.6778V6.358ZM86.7083 6.53052L86.3163 6.79652L87.4393 8.45147L87.8313 8.18547L86.7083 6.53052ZM85.8778 7.61766L85.8218 16.4517L87.8218 16.4643L87.8778 7.63034L85.8778 7.61766ZM85.8218 16.4611L85.8498 25.3511L87.8498 25.3449L87.8218 16.4549L85.8218 16.4611ZM86.676 26.3328L89.532 26.8368L89.8796 24.8672L87.0236 24.3632L86.676 26.3328ZM88.7058 25.852V27H90.7058V25.852H88.7058ZM89.7058 26H81.5858V28H89.7058V26ZM89.484 17.2177L91.514 16.1537L90.5856 14.3823L88.5556 15.4463L89.484 17.2177ZM90.2017 15.7979L94.8637 23.2599L96.5599 22.2001L91.8979 14.7381L90.2017 15.7979ZM94.8769 23.2804C95.7229 24.5636 96.5493 25.5468 97.3666 26.0756L98.4531 24.3964C98.001 24.1039 97.3621 23.4164 96.5467 22.1796L94.8769 23.2804ZM97.3809 26.0847C98.1099 26.539 98.867 26.838 99.6276 26.8518L99.664 24.8522C99.3979 24.8473 98.9978 24.7357 98.4387 24.3873L97.3809 26.0847ZM98.6458 25.852V27H100.646V25.852H98.6458ZM99.6458 26H96.1178V28H99.6458V26ZM96.814 26.2821L95.89 25.3861L94.4977 26.8219L95.4217 27.7179L96.814 26.2821ZM96.0392 25.5699L89.8652 15.7979L88.1744 16.8661L94.3484 26.6381L96.0392 25.5699ZM98.873 27H97.873V28H98.873V27ZM98.873 25.852L98.6841 24.87L97.873 25.026V25.852H98.873ZM101.421 25.362L101.61 26.344L102.158 26.2385L102.356 25.7163L101.421 25.362ZM103.675 19.412L104.61 19.7663L104.614 19.756L104.618 19.7457L103.675 19.412ZM108.463 5.888V4.888H107.756L107.52 5.55426L108.463 5.888ZM110.171 5.888L111.109 5.54248L110.868 4.888H110.171V5.888ZM114.903 18.74L113.965 19.0855L113.968 19.0957L114.903 18.74ZM117.423 25.362L116.488 25.7177L116.683 26.23L117.22 26.3412L117.423 25.362ZM119.789 25.852H120.789V25.0379L119.992 24.8728L119.789 25.852ZM119.789 27V28H120.789V27H119.789ZM112.313 27H111.313V28H112.313V27ZM112.313 25.852L112.134 24.8682L111.313 25.0179V25.852H112.313ZM114.693 25.418L114.872 26.4018L116.003 26.1957L115.643 25.1046L114.693 25.418ZM112.859 19.86L113.809 19.5466L113.802 19.5259L113.794 19.5054L112.859 19.86ZM108.813 9.192L109.748 8.83738L108.79 6.31268L107.873 8.85205L108.813 9.192ZM104.977 19.804L104.037 19.4641L104.03 19.4822L104.024 19.5006L104.977 19.804ZM103.185 25.432L102.232 25.1286L101.88 26.2354L103.027 26.4194L103.185 25.432ZM105.803 25.852H106.803V24.9996L105.961 24.8646L105.803 25.852ZM105.803 27V28H106.803V27H105.803ZM104.053 20.448L103.11 20.1147L102.639 21.448H104.053V20.448ZM104.543 19.062L104.572 18.0624L103.843 18.0409L103.6 18.7287L104.543 19.062ZM109.289 19.202L109.259 20.2016L109.291 20.2025L109.323 20.2014L109.289 19.202ZM113.839 19.048L114.807 18.7964L114.605 18.0215L113.805 18.0486L113.839 19.048ZM114.203 20.448V21.448H115.496L115.171 20.1964L114.203 20.448ZM99.873 27V25.852H97.873V27H99.873ZM99.0618 26.834L101.61 26.344L101.232 24.38L98.6841 24.87L99.0618 26.834ZM102.356 25.7163L104.61 19.7663L102.74 19.0577L100.486 25.0077L102.356 25.7163ZM104.618 19.7457L109.406 6.22174L107.52 5.55426L102.732 19.0783L104.618 19.7457ZM108.463 6.888H110.171V4.888H108.463V6.888ZM109.233 6.23352L113.965 19.0855L115.841 18.3945L111.109 5.54248L109.233 6.23352ZM113.968 19.0957L116.488 25.7177L118.358 25.0063L115.838 18.3843L113.968 19.0957ZM117.22 26.3412L119.586 26.8312L119.992 24.8728L117.626 24.3828L117.22 26.3412ZM118.789 25.852V27H120.789V25.852H118.789ZM119.789 26H112.313V28H119.789V26ZM113.313 27V25.852H111.313V27H113.313ZM112.492 26.8358L114.872 26.4018L114.514 24.4342L112.134 24.8682L112.492 26.8358ZM115.643 25.1046L113.809 19.5466L111.909 20.1734L113.743 25.7314L115.643 25.1046ZM113.794 19.5054L109.748 8.83738L107.878 9.54662L111.924 20.2146L113.794 19.5054ZM107.873 8.85205L104.037 19.4641L105.917 20.1439L109.753 9.53195L107.873 8.85205ZM104.024 19.5006L102.232 25.1286L104.138 25.7354L105.93 20.1074L104.024 19.5006ZM103.027 26.4194L105.645 26.8394L105.961 24.8646L103.343 24.4446L103.027 26.4194ZM104.803 25.852V27H106.803V25.852H104.803ZM105.803 26H98.873V28H105.803V26ZM104.996 20.7813L105.486 19.3953L103.6 18.7287L103.11 20.1147L104.996 20.7813ZM104.513 20.0616L109.259 20.2016L109.318 18.2024L104.572 18.0624L104.513 20.0616ZM109.323 20.2014L113.873 20.0474L113.805 18.0486L109.255 18.2026L109.323 20.2014ZM112.871 19.2996L113.235 20.6996L115.171 20.1964L114.807 18.7964L112.871 19.2996ZM114.203 19.448H104.053V21.448H114.203V19.448ZM118.873 7.302H117.873V8.1464L118.705 8.28787L118.873 7.302ZM118.873 6V5H117.873V6H118.873ZM125.985 6H126.985V5H125.985V6ZM125.985 7.302L126.215 8.27516L126.985 8.0931V7.302H125.985ZM123.913 7.792L123.682 6.81884L122.455 7.10914L123.018 8.2381L123.913 7.792ZM126.153 12.286L125.258 12.7321L125.272 12.7611L125.288 12.7891L126.153 12.286ZM128.435 16.206L127.57 16.7091L128.48 18.2709L129.32 16.671L128.435 16.206ZM130.619 12.048L131.504 12.513L131.512 12.4978L131.519 12.4824L130.619 12.048ZM132.719 7.694L133.619 8.12842L134.21 6.90401L132.865 6.7048L132.719 7.694ZM130.073 7.302H129.073V8.16477L129.926 8.2912L130.073 7.302ZM130.073 6V5H129.073V6H130.073ZM136.905 6H137.905V5H136.905V6ZM136.905 7.302L137.059 8.29004L137.905 8.15804V7.302H136.905ZM134.483 7.68L134.328 6.69196L133.838 6.76857L133.602 7.20604L134.483 7.68ZM131.725 12.804L130.844 12.33L130.841 12.3367L131.725 12.804ZM129.135 17.704L128.251 17.2367L128.134 17.4577L128.135 17.7077L129.135 17.704ZM129.163 25.362L128.163 25.3657L128.166 26.2063L128.994 26.3477L129.163 25.362ZM132.033 25.852H133.033V25.0083L132.201 24.8663L132.033 25.852ZM132.033 27V28H133.033V27H132.033ZM123.731 27H122.731V28H123.731V27ZM123.731 25.852L123.565 24.8659L122.731 25.0062V25.852H123.731ZM126.643 25.362L126.809 26.3481L127.639 26.2083L127.643 25.3657L126.643 25.362ZM126.671 17.886L127.671 17.8897L127.672 17.632L127.548 17.4058L126.671 17.886ZM124.165 13.308L125.042 12.8278L125.038 12.8205L124.165 13.308ZM121.015 7.666L121.888 7.17852L121.654 6.76037L121.182 6.68013L121.015 7.666ZM119.873 7.302V6H117.873V7.302H119.873ZM118.873 7H125.985V5H118.873V7ZM124.985 6V7.302H126.985V6H124.985ZM125.754 6.32884L123.682 6.81884L124.143 8.76516L126.215 8.27516L125.754 6.32884ZM123.018 8.2381L125.258 12.7321L127.048 11.8399L124.808 7.3459L123.018 8.2381ZM125.288 12.7891L127.57 16.7091L129.299 15.7029L127.017 11.7829L125.288 12.7891ZM129.32 16.671L131.504 12.513L129.733 11.583L127.549 15.741L129.32 16.671ZM131.519 12.4824L133.619 8.12842L131.818 7.25957L129.718 11.6136L131.519 12.4824ZM132.865 6.7048L130.219 6.3128L129.926 8.2912L132.572 8.6832L132.865 6.7048ZM131.073 7.302V6H129.073V7.302H131.073ZM130.073 7H136.905V5H130.073V7ZM135.905 6V7.302H137.905V6H135.905ZM136.75 6.31396L134.328 6.69196L134.637 8.66804L137.059 8.29004L136.75 6.31396ZM133.602 7.20604L130.844 12.33L132.605 13.278L135.363 8.15395L133.602 7.20604ZM130.841 12.3367L128.251 17.2367L130.019 18.1713L132.609 13.2713L130.841 12.3367ZM128.135 17.7077L128.163 25.3657L130.163 25.3583L130.135 17.7003L128.135 17.7077ZM128.994 26.3477L131.864 26.8377L132.201 24.8663L129.331 24.3763L128.994 26.3477ZM131.033 25.852V27H133.033V25.852H131.033ZM132.033 26H123.731V28H132.033V26ZM124.731 27V25.852H122.731V27H124.731ZM123.897 26.8381L126.809 26.3481L126.477 24.3759L123.565 24.8659L123.897 26.8381ZM127.643 25.3657L127.671 17.8897L125.671 17.8823L125.643 25.3583L127.643 25.3657ZM127.548 17.4058L125.042 12.8278L123.287 13.7882L125.793 18.3662L127.548 17.4058ZM125.038 12.8205L121.888 7.17852L120.141 8.15348L123.291 13.7955L125.038 12.8205ZM121.182 6.68013L119.04 6.31613L118.705 8.28787L120.847 8.65187L121.182 6.68013Z" fill="black" fill-opacity="0.25" mask="url(#path-1-outside-1_8_149)"/>
<path d="M145.354 17.5L152.5 10.3536L159.646 17.5L152.5 24.6464L145.354 17.5Z" stroke="black" stroke-opacity="0.25" stroke-width="0.5"/>
<path d="M153.354 17.5L160.5 10.3536L167.646 17.5L160.5 24.6464L153.354 17.5Z" stroke="black" stroke-opacity="0.25" stroke-width="0.5"/>
<path d="M161.354 17.5L168.5 10.3536L175.646 17.5L168.5 24.6464L161.354 17.5Z" stroke="black" stroke-opacity="0.25" stroke-width="0.5"/>
<path d="M0.353554 17.5L7.5 10.3536L14.6464 17.5L7.5 24.6464L0.353554 17.5Z" stroke="black" stroke-opacity="0.25" stroke-width="0.5"/>
<path d="M8.35355 17.5L15.5 10.3536L22.6464 17.5L15.5 24.6464L8.35355 17.5Z" stroke="black" stroke-opacity="0.25" stroke-width="0.5"/>
<path d="M16.3536 17.5L23.5 10.3536L30.6464 17.5L23.5 24.6464L16.3536 17.5Z" stroke="black" stroke-opacity="0.25" stroke-width="0.5"/>
</svg>
